# xmcd
#
# Track frame offsets: 
#        150
#        20492
#        40487
#        56911
#        77867
#        102866
#        115072
#        131610
#        146895
#        164067
#        179545
#        195359
#        215479
#        233525
#        246070
#        267636
#        286580
#        313913
#
# Disc length: 4370 seconds
#
# Revision: 0
# Processed by: cddbd v1.5.2PL0 Copyright (c) Steve Scherf et al.
# Submitted via: ExactAudioCopy v0.99pb4
#
DISCID=0f111012
DTITLE=Various Artist - No1 Love Album CD2
DYEAR=2007
DGENRE=Pop
TTITLE0=Bonnie Tyler - Total Eclipse Of The Heart
TTITLE1=Jennifer Rush - The Power Of Love
TTITLE2=Beverley Craven - Promise Me
TTITLE3=Savage Garden - Truly Madly Deeply
TTITLE4=Mr. Mister - Broken Wings
TTITLE5=Elvis Presley - It's Only Love
TTITLE6=Taylor Dayne - Tell It To My Heart
TTITLE7=Shakin' Stevens - A Love Worth Waiting For
TTITLE8=Altered Images - Don't Talk To Me About Love
TTITLE9=Owen Paul - My Favourite Waste Of Time
TTITLE10=Kate Robbins and Beyond - More Than In Love
TTITLE11=Paul Young - Every Time You Go Away
TTITLE12=Alison Moyet - Is This Love
TTITLE13=Deacon Blue - I'll Never Fall In Love Again
TTITLE14=Thompson Twins - Hold Me Now
TTITLE15=Electric Light Orchestra - Shine A Little Love
TTITLE16=Lisa Stansfield - In All The Right Places
TTITLE17=Rick Astley - When I Fall In Love
EXTD=
EXTT0=
EXTT1=
EXTT2=
EXTT3=
EXTT4=
EXTT5=
EXTT6=
EXTT7=
EXTT8=
EXTT9=
EXTT10=
EXTT11=
EXTT12=
EXTT13=
EXTT14=
EXTT15=
EXTT16=
EXTT17=
PLAYORDER=
